<svg width="444" height="512" xmlns="http://www.w3.org/2000/svg" color="#ffffff" version="1.1">

 <g>
  <title>Layer 1</title>
  <path fill="#ffffff" id="svg_1" d="m93.77334,383.30099l-37.58862,-23.46133c7.17432,-23.24737 66.00216,-128.70175 101.1509,-125.73515c-20.37773,53.31288 -31.79533,100.8101 -63.56228,149.19648zm73.89834,-125.87487c-16.82428,50.26397 -35.68491,96.80536 -59.43005,134.41751l113.76988,65.84558l179.79626,-103.59055l0,-96.05392c-17.40863,1.89877 -28.03955,11.71435 -33.85626,27.62479c-8.96506,24.52206 -45.08893,53.52664 -74.20767,14.43432c-46.29348,73.81705 -89.6912,61.13156 -126.07216,-42.67773zm-15.9755,-37.5006c-29.71746,-63.53503 -86.12858,-64.35856 -110.2877,30.38243l0,99.36515c16.75176,-30.08234 69.4947,-126.02959 110.2877,-129.74758zm241.55107,23.28436c-30.18185,-22.63282 -75.27823,4.92609 -92.66653,44.77181c16.27283,26.8457 32.62601,21.31268 46.43317,8.3147c11.11557,-10.46415 14.98718,-42.38198 46.23336,-53.08651zm-131.31872,1.741c-28.16637,-53.93522 -52.02664,-95.94768 -82.74362,-17.20234c25.44642,19.94435 55.93734,40.14917 82.74362,17.20234zm24.19668,44.35372c-6.0589,-9.20624 -12.03927,-20.27558 -17.61111,-31.45896c-26.77724,21.1088 -60.70821,10.871 -94.62198,-16.60142c20.78175,53.49971 37.07301,83.20936 53.34477,91.25175c18.38645,9.08753 43.20433,-11.97003 58.88832,-43.19137zm-255.90302,-144.02736l0,221.44551l191.77781,110.72278l191.7778,-110.72278l0,-221.44551l-191.7778,-110.72277l-191.77781,110.72277zm413.77781,-17.27724l0,256l-222,128l-222,-128l0,-256l222,-128l222,128zm-42.19223,96.85503c-33.02423,-49.82514 -60.8273,-52.75939 -81.18799,-38.38041c-18.52746,13.08419 -31.14535,44.25692 -41.23978,60.66037c4.48475,10.06337 8.70997,15.67193 13.6135,24.95137c23.65475,-45.01399 67.62146,-71.40701 108.81427,-40.74787l0,-6.48346z"/>
 </g>
</svg>