<svg xmlns="http://www.w3.org/2000/svg" viewBox="-25 0 470 500">

  <g>
    <title>Layer 1</title>
    <path id="svg_1" fill="#3BD9D9" d="m202.19,350.05l31.62,-18.28c3.26,-1.89 4.89,-4.35 4.89,-6.82s0,-4.4 0,-4.4l-38.03,-21.55a7,7 0 0 1 -3.15,-5.46l0,-39l-55.23,31.91l0,39a7,7 0 0 0 3.15,5.45l33.15,19.14c6.52,3.77 17.09,3.77 23.6,0.01z"/>
    <path opacity="0.5" id="svg_3" d="m202.19,350.05l31.62,-18.28c3.26,-1.89 4.89,-4.35 4.89,-6.82s0,-4.4 0,-4.4l-38.03,-21.55a7,7 0 0 1 -3.15,-5.46l0,-39l-55.23,31.91l0,39a7,7 0 0 0 3.15,5.45l33.15,19.14c6.52,3.77 17.09,3.77 23.6,0.01z"/>
    <path id="svg_4" fill="#3BD9D9" d="m155.55,332.36l0,4.38l-10.12,-5.83a7,7 0 0 1 -3.15,-5.46l0,-39l10.53,-6.07c0.21,2.67 0.45,5.43 0.67,8.12l-7.38,4.27l0,30.46a6.93,6.93 0 0 0 3.14,5.45l6.31,3.68z"/>
    <path fill="#1c3549" id="svg_5" opacity="0.7" d="m155.55,332.36l0,4.38l-10.12,-5.83a7,7 0 0 1 -3.15,-5.46l0,-39l10.53,-6.07c0.21,2.67 0.45,5.43 0.67,8.12l-7.38,4.27l0,30.46a6.93,6.93 0 0 0 3.14,5.45l6.31,3.68z"/>
    <path id="svg_6" fill="#3BD9D9" d="m146.1,323.26a6.94,6.94 0 0 0 3.15,5.45l29.33,16.94c6.52,3.77 17.09,3.77 23.61,0l31.64,-18.28c6.52,-3.76 6.52,-9.86 0,-13.62l-29.35,-16.95a6.94,6.94 0 0 1 -3.15,-5.45l0,-30.46l-55.23,31.91l0,30.46z"/>
    <path fill-opacity="0" fill="#305473" id="svg_7" opacity="0.3" d="m146.1,323.26a6.94,6.94 0 0 0 3.15,5.45l29.33,16.94c6.52,3.77 17.09,3.77 23.61,0l31.64,-18.28c6.52,-3.76 6.52,-9.86 0,-13.62l-29.35,-16.95a6.94,6.94 0 0 1 -3.15,-5.45l0,-30.46l-55.23,31.91l0,30.46z"/>
    <path id="svg_8" opacity="0.7" fill="#3BD9D9" d="m210.89,300.51l0,0l-6.41,-3.7a6.94,6.94 0 0 1 -3.15,-5.45l0,-30.47l-55.23,31.91l0,30.46a6.94,6.94 0 0 0 3.15,5.45l6.3,3.64l55.34,-31.84z"/>
    <path fill="#305473" id="svg_9" opacity="0.6" d="m210.89,300.51l0,0l-6.41,-3.7a6.94,6.94 0 0 1 -3.15,-5.45l0,-30.47l-55.23,31.91l0,30.46a6.94,6.94 0 0 0 3.15,5.45l6.3,3.64l55.34,-31.84z"/>
    <path id="svg_10" fill="#3BD9D9" d="m238.71,320.56l0,4.44c0,2.47 -1.64,4.92 -4.89,6.81l-31.62,18.19a23.63,23.63 0 0 1 -11.27,2.8l0,-4.38a23.63,23.63 0 0 0 11.27,-2.8l31.62,-18.29c3.25,-1.83 4.89,-4.33 4.89,-6.77z"/>
    <path id="svg_11" opacity="0.2" d="m238.71,320.56l0,4.44c0,2.47 -1.64,4.92 -4.89,6.81l-31.62,18.19a23.63,23.63 0 0 1 -11.27,2.8l0,-4.38a23.63,23.63 0 0 0 11.27,-2.8l31.62,-18.29c3.25,-1.83 4.89,-4.33 4.89,-6.77z"/>
    <path id="svg_12" fill="#3BD9D9" d="m57.42,365.32a8.45,8.45 0 0 0 7.63,-0.14l213.58,-123.31a8.72,8.72 0 0 0 3.93,-6.82l0,-186.94a8.41,8.41 0 0 0 -3.69,-6.67a8.4,8.4 0 0 0 -7.62,0.14l-213.58,123.31a8.68,8.68 0 0 0 -3.93,6.81l0,187a8.47,8.47 0 0 0 3.68,6.62z"/>
    <path id="svg_13" opacity="0.3" d="0"/>
    <path id="svg_14" fill="#3BD9D9" d="m65.05,365.17l213.58,-123.31a8.69,8.69 0 0 0 3.94,-6.81l0,-186.95c0,-2.51 -1.77,-3.52 -3.94,-2.27l-213.58,123.31a8.72,8.72 0 0 0 -3.93,6.86l0,186.9c0,2.51 1.76,3.53 3.93,2.27z"/>
    <path id="svg_15" fill="#3BD9D9" d="m65.05,365.17l213.58,-123.31a8.69,8.69 0 0 0 3.94,-6.81l0,-186.95c0,-2.51 -1.77,-3.52 -3.94,-2.27l-213.58,123.31a8.72,8.72 0 0 0 -3.93,6.86l0,186.9c0,2.51 1.76,3.53 3.93,2.27z"/>
    <path fill-opacity="0" fill="#3bd9d9" id="svg_16" opacity="0.5" d="m65.05,365.17l213.58,-123.31a8.69,8.69 0 0 0 3.94,-6.81l0,-186.95c0,-2.51 -1.77,-3.52 -3.94,-2.27l-213.58,123.31a8.72,8.72 0 0 0 -3.93,6.86l0,186.9c0,2.51 1.76,3.53 3.93,2.27z"/>
    <path id="svg_17" fill="#3BD9D9" d="m64.47,365.47a8.48,8.48 0 0 1 -7,-0.15a8.43,8.43 0 0 1 -3.69,-6.68l0,-21l7.38,4.27l0,21c-0.05,2.29 1.4,3.32 3.31,2.56z"/>
    <path fill="#305473" id="svg_18" opacity="0.7" d="m64.47,365.47a8.48,8.48 0 0 1 -7,-0.15a8.43,8.43 0 0 1 -3.69,-6.68l0,-21l7.38,4.27l0,21c-0.05,2.29 1.4,3.32 3.31,2.56z"/>
    <path id="svg_19" fill="#3BD9D9" d="m61.12,341.88l0,21c0,2.51 1.76,3.53 3.93,2.27l213.58,-123.29a8.69,8.69 0 0 0 3.94,-6.81l0,-21.05l-221.45,127.88z"/>
    <g id="svg_20" opacity="0.5">
      <path fill="#3bd9d9" id="svg_21" d="m61.12,341.88l0,21c0,2.51 1.76,3.53 3.93,2.27l213.58,-123.29a8.69,8.69 0 0 0 3.94,-6.81l0,-21.05l-221.45,127.88z"/>
    </g>
    <path id="svg_22" fill="#fafafa" d="m68.5,326.37l0,-148a5.19,5.19 0 0 1 2.36,-4.09l202,-116.61c1.3,-0.75 2.36,-0.14 2.36,1.37l0,147.96a5.22,5.22 0 0 1 -2.36,4.09l-202,116.6c-1.31,0.79 -2.36,0.18 -2.36,-1.32z"/>
    <path id="svg_23" fill="#3BD9D9" d="m171.84,286.48a8.14,8.14 0 0 0 -3.69,6.39c0,2.35 1.65,3.31 3.69,2.13a8.16,8.16 0 0 0 3.69,-6.39c0,-2.36 -1.65,-3.31 -3.69,-2.13z"/>
    <path id="svg_24" opacity="0.5" fill="#fff" d="m171.84,286.48a8.14,8.14 0 0 0 -3.69,6.39c0,2.35 1.65,3.31 3.69,2.13a8.16,8.16 0 0 0 3.69,-6.39c0,-2.36 -1.65,-3.31 -3.69,-2.13z"/>
    <path id="svg_25" fill="#3BD9D9" d="m62.27,172.06a8.39,8.39 0 0 0 -1.16,3.94l0,165.88l-7.38,-4.27l0,-165.91a8.27,8.27 0 0 1 1.16,-3.89l7.38,4.25z"/>
    <path fill="#305473" id="svg_26" opacity="0.7" d="m62.27,172.06a8.39,8.39 0 0 0 -1.16,3.94l0,165.88l-7.38,-4.27l0,-165.91a8.27,8.27 0 0 1 1.16,-3.89l7.38,4.25z"/>
    <path fill="#e0e0e0" d="m138.9,407.94l53.36,30.9a6.6,6.6 0 0 0 6,0l157.64,-90.84c1.66,-1 1.66,-2.5 0,-3.46l-53.37,-30.9a6.6,6.6 0 0 0 -6,0l-157.63,90.85c-1.65,0.95 -1.66,2.51 0,3.45z" id="freepik--shadow--inject-5"/>
    <path id="svg_27" fill="#3BD9D9" d="m352.67,339a2.11,2.11 0 0 0 -1.24,-1.73l-50.13,-28.93a6.6,6.6 0 0 0 -6,0l-153,88.46a2.12,2.12 0 0 0 -1.23,1.73l0,5.26a2.08,2.08 0 0 0 1.24,1.72l50.11,28.94a6.63,6.63 0 0 0 6,0l153,-88.33a2.1,2.1 0 0 0 1.24,-1.72l0.01,-5.4z"/>
    <path id="svg_28" opacity="0.5" d="m352.67,339a2.11,2.11 0 0 0 -1.24,-1.73l-50.13,-28.93a6.6,6.6 0 0 0 -6,0l-153,88.46a2.12,2.12 0 0 0 -1.23,1.73l0,5.26a2.08,2.08 0 0 0 1.24,1.72l50.11,28.94a6.63,6.63 0 0 0 6,0l153,-88.33a2.1,2.1 0 0 0 1.24,-1.72l0.01,-5.4z"/>
    <path id="svg_29" fill="#3BD9D9" d="m192.45,429.07l-50.11,-28.81c-1.65,-0.95 -1.66,-2.49 0,-3.45l153,-88.46a6.6,6.6 0 0 1 6,0l50.13,28.94c1.65,1 1.65,2.5 0,3.46l-153,88.33a6.63,6.63 0 0 1 -6.02,-0.01z"/>
    <path fill-opacity="0" fill="#3bd9d9" id="svg_30" opacity="0.3" d="m192.45,429.07l-50.11,-28.81c-1.65,-0.95 -1.66,-2.49 0,-3.45l153,-88.46a6.6,6.6 0 0 1 6,0l50.13,28.94c1.65,1 1.65,2.5 0,3.46l-153,88.33a6.63,6.63 0 0 1 -6.02,-0.01z"/>
    <path id="svg_31" fill="#3BD9D9" d="m195.25,429.78l0,5.38a6.37,6.37 0 0 1 -2.81,-0.69l-50.09,-28.94a2.11,2.11 0 0 1 -1.25,-1.73l0,-5.27a2.14,2.14 0 0 0 1.25,1.73l50.09,28.82a6.12,6.12 0 0 0 2.81,0.7z"/>
    <path id="svg_32" opacity="0.7" d="m195.25,429.78l0,5.38a6.37,6.37 0 0 1 -2.81,-0.69l-50.09,-28.94a2.11,2.11 0 0 1 -1.25,-1.73l0,-5.27a2.14,2.14 0 0 0 1.25,1.73l50.09,28.82a6.12,6.12 0 0 0 2.81,0.7z"/>
    <path id="svg_33" fill="#37474f" d="m259.24,345.6l5.71,3.3a0.78,0.78 0 0 0 0.37,0.09l5.26,-2.93l-6.14,-3.46l-5.2,3z"/>
    <path id="svg_34" fill="#37474f" d="m266.11,341.64l5.74,3.31a0.71,0.71 0 0 0 0.34,0.07l0.21,0l5.05,-2.92l-6.14,-3.45l-5.2,2.99z"/>
    <path id="svg_35" fill="#37474f" d="m247.67,352.29l5.73,3.31a0.74,0.74 0 0 0 0.34,0.07l8.52,-4.81l-6.14,-3.45l-8.45,4.88z"/>
    <path id="svg_36" fill="#37474f" d="m240.8,356.26l5.72,3.3a0.78,0.78 0 0 0 0.35,0.08l5.27,-2.93l-6.14,-3.45l-5.2,3z"/>
    <path id="svg_37" fill="#37474f" d="m209.4,408.18l5.27,-2.93l-6.14,-3.45l-5.2,3l5.73,3.32a0.94,0.94 0 0 0 0.34,0.06z"/>
    <path id="svg_38" fill="#37474f" d="m233.92,360.22l5.71,3.3a0.71,0.71 0 0 0 0.37,0.09l5.26,-2.93l-6.14,-3.46l-5.2,3z"/>
    <path id="svg_39" fill="#37474f" d="m272.21,347.09l-5.2,3l5.72,3.3a0.67,0.67 0 0 0 0.35,0.08l5.27,-2.93l-6.14,-3.45z"/>
    <path id="svg_40" fill="#37474f" d="m253,374l5.27,-2.93l-6.15,-3.45l-5.2,3l5.73,3.31a0.75,0.75 0 0 0 0.35,0.07z"/>
    <path id="svg_41" fill="#37474f" d="m280,349.51l5.26,-2.93l-6.14,-3.46l-5.2,3l5.74,3.31a0.71,0.71 0 0 0 0.34,0.08z"/>
    <path id="svg_42" fill="#37474f" d="m246.13,378l5.26,-2.93l-6.14,-3.46l-5.2,3l5.71,3.3a0.71,0.71 0 0 0 0.37,0.09z"/>
    <path id="svg_43" fill="#37474f" d="m239.26,382l5.26,-2.93l-6.14,-3.46l-5.2,3l5.73,3.31a0.78,0.78 0 0 0 0.35,0.08z"/>
    <path id="svg_44" fill="#37474f" d="m266.74,366.1l11.05,-6.27l-13.9,-7.94l-5.89,3.42l7.27,4.19a0.36,0.36 0 0 1 0.21,0.3a0.32,0.32 0 0 1 -0.18,0.27l-4.59,2.65l5.7,3.29a0.73,0.73 0 0 0 0.33,0.09z"/>
    <path id="svg_45" fill="#37474f" d="m220.18,368.16l5.73,3.31a0.71,0.71 0 0 0 0.34,0.07l5.27,-2.93l-6.15,-3.45l-5.19,3z"/>
    <path id="svg_46" fill="#37474f" d="m259.87,370.07l5.27,-2.93l-6.14,-3.45l-5.2,3l5.69,3.28a0.74,0.74 0 0 0 0.38,0.1z"/>
    <path id="svg_47" fill="#37474f" d="m181.57,406.31l5.27,-2.93l-6.15,-3.46l-5.2,3l5.71,3.29a0.78,0.78 0 0 0 0.37,0.1z"/>
    <path id="svg_48" fill="#37474f" d="m165.2,399.9l5.74,3.32a0.84,0.84 0 0 0 0.33,0.07l0.21,0l5.06,-2.92l-6.15,-3.45l-5.19,2.98z"/>
    <path id="svg_49" fill="#37474f" d="m191.15,409.75l0.21,0l5,-2.92l-6.14,-3.45l-5.2,3l5.74,3.31a0.86,0.86 0 0 0 0.39,0.06z"/>
    <path id="svg_50" fill="#37474f" d="m195.66,416.11l5.27,-2.93l-6.15,-3.45l-5.2,3l5.71,3.29a0.67,0.67 0 0 0 0.37,0.09z"/>
    <path id="svg_51" fill="#37474f" d="m172.07,395.93l5.73,3.32a0.94,0.94 0 0 0 0.34,0.07l5.27,-2.93l-6.15,-3.45l-5.19,2.99z"/>
    <path id="svg_52" fill="#37474f" d="m202.53,412.15l5.26,-2.94l-6.14,-3.45l-5.19,3l5.73,3.31a0.74,0.74 0 0 0 0.34,0.08z"/>
    <path id="svg_53" fill="#37474f" d="m192.69,384l5.72,3.31a0.78,0.78 0 0 0 0.35,0.07l5.27,-2.92l-6.15,-3.46l-5.19,3z"/>
    <path id="svg_54" fill="#37474f" d="m199.56,380.06l5.71,3.3a0.71,0.71 0 0 0 0.36,0.09l5.27,-2.93l-6.14,-3.46l-5.2,3z"/>
    <path id="svg_55" fill="#37474f" d="m206.43,376.09l5.7,3.3a0.76,0.76 0 0 0 0.37,0.09l5.27,-2.93l-6.14,-3.45l-5.2,2.99z"/>
    <path id="svg_56" fill="#37474f" d="m185.81,388l5.71,3.29a0.73,0.73 0 0 0 0.36,0.1l5.28,-2.94l-6.16,-3.45l-5.19,3z"/>
    <path id="svg_57" fill="#37474f" d="m213.31,372.13l5.73,3.31a0.82,0.82 0 0 0 0.34,0.07l5.27,-2.93l-6.15,-3.45l-5.19,3z"/>
    <path id="svg_58" fill="#37474f" d="m178.94,392l5.73,3.3a0.78,0.78 0 0 0 0.35,0.08l5.26,-2.93l-6.14,-3.45l-5.2,3z"/>
    <path id="svg_59" fill="#37474f" d="m227.05,364.19l5.74,3.32a0.84,0.84 0 0 0 0.33,0.07l5.27,-2.93l-6.14,-3.46l-5.2,3z"/>
    <path id="svg_60" fill="#37474f" d="m244.22,363.25l5.71,3.29a0.73,0.73 0 0 0 0.37,0.09l0.21,0l5.05,-2.92l-6.14,-3.45l-5.2,2.99z"/>
    <path id="svg_61" fill="#37474f" d="m281.31,332.87l5.71,3.29a0.75,0.75 0 0 0 0.36,0.09l5.27,-2.93l-6.15,-3.45l-5.19,3z"/>
    <path id="svg_62" fill="#37474f" d="m288.18,328.9l5.71,3.29a0.71,0.71 0 0 0 0.36,0.09l5.27,-2.93l-6.14,-3.45l-5.2,3z"/>
    <path id="svg_63" fill="#37474f" d="m237.35,367.21l5.71,3.3a0.75,0.75 0 0 0 0.36,0.09l5.27,-2.93l-6.14,-3.46l-5.2,3z"/>
    <path id="svg_64" fill="#37474f" d="m295.05,324.93l5.71,3.3a0.77,0.77 0 0 0 0.36,0.09l5.27,-2.94l-6.14,-3.45l-5.2,3z"/>
    <path id="svg_65" fill="#37474f" d="m257.17,362.66l0.21,0l5.05,-2.92l-6.14,-3.45l-5.2,3l5.71,3.29a0.76,0.76 0 0 0 0.37,0.08z"/>
    <path id="svg_66" fill="#37474f" d="m289.07,337.35l5.7,3.29a0.82,0.82 0 0 0 0.38,0.1l5.26,-2.93l-6.14,-3.46l-5.2,3z"/>
    <path id="svg_67" fill="#37474f" d="m302.82,329.41l5.7,3.29a0.73,0.73 0 0 0 0.37,0.1l5.27,-2.93l-6.16,-3.45l-5.18,2.99z"/>
    <path id="svg_68" fill="#37474f" d="m302,336.77l5.27,-2.93l-6.15,-3.46l-5.2,3l5.73,3.31a0.78,0.78 0 0 0 0.35,0.08z"/>
    <path id="svg_69" fill="#37474f" d="m323.21,333.25a0.83,0.83 0 0 0 0.32,0.07l0.22,0l5.05,-2.91l-13.91,-7.94l-5.2,3l13.52,7.78z"/>
    <path id="svg_70" fill="#37474f" d="m230.47,371.18l5.72,3.3a0.7,0.7 0 0 0 0.36,0.09l0.21,0l5.06,-2.91l-6.15,-3.46l-5.2,2.98z"/>
    <path id="svg_71" fill="#37474f" d="m309.79,341.25l0.21,0l5.05,-2.92l-6.14,-3.45l-5.2,3l5.71,3.29a0.76,0.76 0 0 0 0.37,0.08z"/>
    <path id="svg_72" fill="#37474f" d="m316.66,337.28l5.27,-2.93l-6.15,-3.45l-5.2,3l5.7,3.29a0.79,0.79 0 0 0 0.38,0.09z"/>
    <path id="svg_73" fill="#37474f" d="m196.11,391l5.71,3.29a0.76,0.76 0 0 0 0.37,0.1l5.26,-2.93l-6.14,-3.46l-5.2,3z"/>
    <path id="svg_74" fill="#37474f" d="m182.37,399l5.7,3.29a0.73,0.73 0 0 0 0.37,0.09l0.21,0l5.06,-2.92l-6.15,-3.46l-5.19,3z"/>
    <path id="svg_75" fill="#37474f" d="m204.89,401.82l5.27,-2.93l-6.16,-3.46l-5.19,3l5.74,3.31a0.68,0.68 0 0 0 0.34,0.08z"/>
    <path id="svg_76" fill="#37474f" d="m198,405.78l5.27,-2.93l-6.15,-3.45l-5.2,3l5.74,3.31a0.71,0.71 0 0 0 0.34,0.07z"/>
    <path id="svg_77" fill="#37474f" d="m211.76,397.85l0.22,0l5.05,-2.91l-6.14,-3.46l-5.2,3l5.7,3.29a0.73,0.73 0 0 0 0.37,0.08z"/>
    <path id="svg_78" fill="#37474f" d="m223.6,375.15l5.72,3.3a0.77,0.77 0 0 0 0.36,0.08l0.21,0l5.05,-2.92l-6.14,-3.45l-5.2,2.99z"/>
    <path id="svg_79" fill="#37474f" d="m225.51,389.91l5.27,-2.93l-6.15,-3.45l-5.2,3l5.71,3.29a0.78,0.78 0 0 0 0.37,0.09z"/>
    <path id="svg_80" fill="#37474f" d="m218.64,393.88l5.26,-2.88l-6.14,-3.45l-5.2,3l5.74,3.32a0.89,0.89 0 0 0 0.34,0.01z"/>
    <path id="svg_81" fill="#37474f" d="m209.86,383.09l5.7,3.29a0.73,0.73 0 0 0 0.37,0.09l5.27,-2.93l-6.14,-3.45l-5.2,3z"/>
    <path id="svg_82" fill="#37474f" d="m189.24,395l5.7,3.29a0.77,0.77 0 0 0 0.38,0.09l5.26,-2.93l-6.14,-3.45l-5.2,3z"/>
    <path id="svg_83" fill="#37474f" d="m216.73,379.12l5.71,3.29a0.73,0.73 0 0 0 0.37,0.09l5.26,-2.93l-6.14,-3.45l-5.2,3z"/>
    <path id="svg_84" fill="#37474f" d="m203,387.05l5.7,3.3a0.73,0.73 0 0 0 0.37,0.09l0.21,0l5.06,-2.91l-6.15,-3.46l-5.19,2.98z"/>
    <path id="svg_85" fill="#37474f" d="m232.38,385.94l5.27,-2.93l-6.15,-3.45l-5.19,3l5.72,3.3a0.67,0.67 0 0 0 0.35,0.08z"/>
    <path id="svg_86" fill="#37474f" d="m273,337.67l5.73,3.31a0.77,0.77 0 0 0 0.34,0.07l5.27,-2.93l-6.15,-3.45l-5.19,3z"/>
    <path id="svg_87" fill="#37474f" d="m163.52,400.87l-5.2,3l5.74,3.31a0.71,0.71 0 0 0 0.34,0.07l0.21,0l5.06,-2.92l-6.15,-3.46z"/>
    <path id="svg_88" fill="#37474f" d="m173.82,403.89l-7.73,4.46l5.74,3.32a0.84,0.84 0 0 0 0.33,0.07l0.22,0l7.58,-4.38l-6.14,-3.47z"/>
    <path id="svg_89" fill="#37474f" d="m155.18,394.8l-6.29,3.63l5.72,3.29a0.7,0.7 0 0 0 0.36,0.09l6.35,-3.55l-6.14,-3.46z"/>
    <path id="svg_90" fill="#37474f" d="m187.91,413.7l-6.28,3.63l5.7,3.29a0.78,0.78 0 0 0 0.37,0.09l6.35,-3.56l-6.14,-3.45z"/>
    <path id="svg_91" fill="#37474f" d="m183.39,407.34l-9.53,5.5l5.73,3.31a0.77,0.77 0 0 0 0.34,0.07l0.21,0l9.4,-5.42l-6.15,-3.46z"/>
    <path id="svg_92" fill="#37474f" d="m165.92,395.49l5.26,-2.93l-6.18,-3.45l-5.2,3l5.71,3.3a0.73,0.73 0 0 0 0.41,0.08z"/>
    <path id="svg_93" fill="#37474f" d="m189.39,421.81l5.71,3.3a0.83,0.83 0 0 0 0.36,0.08l7.8,-4.39l-6.14,-3.45l-7.73,4.46z"/>
    <path id="svg_94" fill="#37474f" d="m172.79,391.52l5.27,-2.93l-6.15,-3.45l-5.19,3l5.73,3.31a0.77,0.77 0 0 0 0.34,0.07z"/>
    <path id="svg_95" fill="#37474f" d="m203.27,373.93l0.21,0l5.06,-2.92l-6.15,-3.45l-5.19,3l5.71,3.3a0.71,0.71 0 0 0 0.36,0.07z"/>
    <path id="svg_96" fill="#37474f" d="m210.14,370l5.27,-2.93l-6.14,-3.46l-5.2,3l5.72,3.3a0.69,0.69 0 0 0 0.35,0.09z"/>
    <path id="svg_97" fill="#37474f" d="m196.4,377.89l0.21,0l5,-2.92l-6.14,-3.45l-5.2,3l5.73,3.28a0.76,0.76 0 0 0 0.4,0.09z"/>
    <path id="svg_98" fill="#37474f" d="m186.53,383.59l0.22,0l5.05,-2.91l-6.14,-3.46l-5.2,3l5.72,3.3a0.65,0.65 0 0 0 0.35,0.07z"/>
    <path id="svg_99" fill="#37474f" d="m179.66,387.56l5.27,-2.93l-6.14,-3.46l-5.2,3l5.73,3.31a0.71,0.71 0 0 0 0.34,0.08z"/>
    <path id="svg_100" fill="#37474f" d="m326.13,342.87l5.74,3.32a0.84,0.84 0 0 0 0.33,0.06l0.21,0l5,-2.92l-6.14,-3.45l-5.14,2.99z"/>
    <path id="svg_101" fill="#37474f" d="m290.31,363.54l5.7,3.29a0.68,0.68 0 0 0 0.37,0.1l5.27,-2.93l-6.14,-3.46l-5.2,3z"/>
    <path id="svg_102" fill="#37474f" d="m312.38,350.81l5.71,3.29a0.75,0.75 0 0 0 0.36,0.09l0.21,0l11.93,-6.89l-6.14,-3.45l-12.07,6.96z"/>
    <path id="svg_103" fill="#37474f" d="m297.18,359.58l5.7,3.28a0.71,0.71 0 0 0 0.38,0.1l5.27,-2.93l-6.15,-3.45l-5.2,3z"/>
    <path id="svg_104" fill="#37474f" d="m304.06,355.61l5.68,3.27a0.65,0.65 0 0 0 0.39,0.11l5.27,-2.93l-6.15,-3.45l-5.19,3z"/>
    <path id="svg_105" fill="#37474f" d="m217,366l0.22,0l5.05,-2.92l-6.14,-3.46l-5.2,3l5.7,3.29a0.76,0.76 0 0 0 0.37,0.09z"/>
    <path id="svg_106" fill="#37474f" d="m330.43,331.41l-5.2,3l13.51,7.8a0.84,0.84 0 0 0 0.33,0.07l0.21,0l5.05,-2.92l-13.9,-7.95z"/>
    <path id="svg_107" fill="#37474f" d="m206.76,411.79l5.7,3.29a0.78,0.78 0 0 0 0.37,0.09l6.35,-3.56l-6.18,-3.45l-6.24,3.63z"/>
    <path id="svg_108" fill="#37474f" d="m214.71,407.19l5.7,3.29a0.77,0.77 0 0 0 0.38,0.1l0.21,0l39.06,-22.58l-6.15,-3.46l-39.2,22.65z"/>
    <path id="svg_109" fill="#37474f" d="m216.27,404.21l5.27,-2.93l-6.14,-3.45l-5.2,3l5.73,3.3a0.77,0.77 0 0 0 0.34,0.08z"/>
    <path id="svg_110" fill="#37474f" d="m198.8,416.38l5.7,3.29a0.79,0.79 0 0 0 0.37,0.1l6.35,-3.56l-6.14,-3.46l-6.28,3.63z"/>
    <path id="svg_111" fill="#37474f" d="m255.59,383.59l5.71,3.3a0.82,0.82 0 0 0 0.36,0.09l0.22,0l6.13,-3.54l-6.14,-3.44l-6.28,3.59z"/>
    <path id="svg_112" fill="#37474f" d="m271.5,374.4l5.73,3.31a0.73,0.73 0 0 0 0.35,0.08l0.21,0l6.14,-3.54l-6.14,-3.46l-6.29,3.61z"/>
    <path id="svg_113" fill="#37474f" d="m263.54,379l5.74,3.31a0.77,0.77 0 0 0 0.34,0.07l6.35,-3.56l-6.14,-3.45l-6.29,3.63z"/>
    <path id="svg_114" fill="#37474f" d="m279.46,369.81l5.71,3.29a0.73,0.73 0 0 0 0.37,0.09l0.21,0l7.58,-4.38l-6.14,-3.45l-7.73,4.45z"/>
    <path id="svg_115" fill="#37474f" d="m286.83,345.54l0.21,0l5.06,-2.91l-6.1,-3.48l-5.2,3l5.73,3.31a0.75,0.75 0 0 0 0.3,0.08z"/>
    <path id="svg_116" fill="#37474f" d="m295.49,358.48l0.21,0l5.06,-2.92l-6.14,-3.45l-5.2,3l5.72,3.31a0.75,0.75 0 0 0 0.35,0.06z"/>
    <path id="svg_117" fill="#37474f" d="m271.26,372.47l14.31,-8.16l-6.15,-3.45l-14.24,8.22l5.74,3.31a0.69,0.69 0 0 0 0.34,0.08z"/>
    <path id="svg_118" fill="#37474f" d="m310.68,349.7l0.22,0l5.05,-2.92l-6.14,-3.45l-5.2,3l5.73,3.31a0.77,0.77 0 0 0 0.34,0.06z"/>
    <path id="svg_119" fill="#37474f" d="m317.56,345.74l0.21,0l5.05,-2.91l-6.14,-3.46l-5.2,3l5.72,3.31a0.79,0.79 0 0 0 0.36,0.06z"/>
    <path id="svg_120" fill="#37474f" d="m264.38,376.44l5.27,-2.93l-6.14,-3.46l-5.2,3l5.71,3.3a0.8,0.8 0 0 0 0.36,0.09z"/>
    <path id="svg_121" fill="#37474f" d="m302.92,345.22l0.21,0l5.05,-2.92l-6.18,-3.46l-5.2,3l5.7,3.28a0.68,0.68 0 0 0 0.42,0.1z"/>
    <path id="svg_122" fill="#37474f" d="m230,396.27l5.27,-2.93l-6.15,-3.45l-5.19,3l5.73,3.31a0.71,0.71 0 0 0 0.34,0.07z"/>
    <path id="svg_123" fill="#37474f" d="m257.51,380.4l5.27,-2.93l-6.15,-3.47l-5.19,3l5.74,3.32a0.91,0.91 0 0 0 0.33,0.08z"/>
    <path id="svg_124" fill="#37474f" d="m223.15,400.24l0.21,0l5,-2.92l-6.14,-3.45l-5.2,3l5.74,3.31a0.71,0.71 0 0 0 0.39,0.06z"/>
    <path id="svg_125" fill="#37474f" d="m236.89,392.31l5.27,-2.93l-6.16,-3.46l-5.2,3l5.75,3.32a0.72,0.72 0 0 0 0.34,0.07z"/>
    <path id="svg_126" fill="#37474f" d="m243.77,388.34l0.23,0l5.05,-2.92l-6.16,-3.42l-5.2,3l5.71,3.3a0.71,0.71 0 0 0 0.37,0.04z"/>
    <path id="svg_127" fill="#37474f" d="m250.64,384.37l0.21,0l5.06,-2.92l-6.15,-3.45l-5.2,3l5.74,3.31a0.86,0.86 0 0 0 0.34,0.06z"/>
    <path id="svg_128" fill="#37474f" d="m233.75,356.33l5.25,-2.93l-6.15,-3.46l-5.2,3l5.71,3.29a0.66,0.66 0 0 0 0.39,0.1z"/>
    <path id="svg_129" fill="#37474f" d="m324.43,341.77l0.21,0l5.06,-2.91l-6.15,-3.46l-5.2,3l5.74,3.32a0.86,0.86 0 0 0 0.34,0.05z"/>
    <path id="svg_130" fill="#37474f" d="m247.5,348.39l5.26,-2.93l-6.14,-3.46l-5.2,3l5.7,3.29a0.77,0.77 0 0 0 0.38,0.1z"/>
    <path id="svg_131" fill="#37474f" d="m262.76,339.58l5.27,-2.93l-6.15,-3.46l-5.19,3l5.71,3.3a0.7,0.7 0 0 0 0.36,0.09z"/>
    <path id="svg_132" fill="#37474f" d="m255.89,343.55l5.26,-2.93l-6.15,-3.46l-5.2,3l5.71,3.3a0.76,0.76 0 0 0 0.38,0.09z"/>
    <path id="svg_133" fill="#37474f" d="m226.88,360.3l5.27,-2.94l-6.15,-3.45l-5.19,3l5.71,3.3a0.82,0.82 0 0 0 0.36,0.09z"/>
    <path id="svg_134" fill="#37474f" d="m240.62,352.36l0.22,0l5,-2.92l-6.09,-3.44l-5.2,3l5.7,3.29a0.76,0.76 0 0 0 0.37,0.07z"/>
    <path id="svg_135" fill="#37474f" d="m269.63,335.61l5.27,-2.93l-6.14,-3.45l-5.2,3l5.71,3.29a0.7,0.7 0 0 0 0.36,0.09z"/>
    <path id="svg_136" fill="#37474f" d="m296.58,317.75l5.26,-2.93l-3.34,-1.82l-5.2,3l2.92,1.65a0.83,0.83 0 0 0 0.36,0.1z"/>
    <path id="svg_137" fill="#37474f" d="m308,324.35l5.27,-2.93l-6.15,-3.42l-5.2,3l5.71,3.3a0.78,0.78 0 0 0 0.37,0.05z"/>
    <path id="svg_138" fill="#37474f" d="m276,329.66l0.21,0l5.05,-2.92l-3.34,-1.8l-5.2,3l2.91,1.65a0.89,0.89 0 0 0 0.37,0.07z"/>
    <path id="svg_139" fill="#37474f" d="m282.83,325.69l0.21,0l5,-2.91l-3.28,-1.78l-5.2,3l2.93,1.65a0.77,0.77 0 0 0 0.34,0.04z"/>
    <path id="svg_140" fill="#37474f" d="m289.7,321.72l5.27,-2.93l-3.34,-1.79l-5.2,3l2.94,1.66a0.84,0.84 0 0 0 0.33,0.06z"/>
    <g id="freepik--Windows--inject-5">
      <g id="svg_141" opacity="0.8">
        <path id="svg_142" fill="#455a64" d="m297.52,62.76l0,148.45a6.81,6.81 0 0 1 -3.08,5.34l-200.09,115.74a2,2 0 0 1 -1,0.3a1.74,1.74 0 0 1 -0.39,0a1.14,1.14 0 0 1 -0.26,-0.09l-0.17,-0.1l-0.18,-0.12a1.22,1.22 0 0 1 -0.17,-0.15a2.52,2.52 0 0 1 -0.57,-0.81a3.88,3.88 0 0 1 -0.32,-1.56l0,-147.76a6.85,6.85 0 0 1 3.09,-5.35l200.06,-115.65a2.25,2.25 0 0 1 2.07,-0.26a1.82,1.82 0 0 1 0.27,0.15l0,0a0.8,0.8 0 0 1 0.2,0.21a0.48,0.48 0 0 1 0.09,0.11a0.54,0.54 0 0 1 0.1,0.16a1.38,1.38 0 0 1 0.18,0.39a1.15,1.15 0 0 1 0.07,0.28a0.07,0.07 0 0 1 0,0.06a1.26,1.26 0 0 1 0.05,0.28c0.04,0.11 0.05,0.24 0.05,0.38z"/>
        <path id="svg_143" fill="#455a64" d="m295.81,61.56a0.8,0.8 0 0 1 0.3,0.06l0,0l0,0l0.06,0l0.08,0.11l0,0l0.08,0.11s0,0 0,0.05l0,0l0.09,0.29l0,0l0,0l0,0a0.56,0.56 0 0 0 0,0.07c0,0.1 0,0.2 0,0.31l0,148.65a5.81,5.81 0 0 1 -2.58,4.48l-199.99,115.74a1,1 0 0 1 -0.52,0.16l0,0l-0.21,0l-0.07,0l-0.13,-0.09l0,0l0,0l0,-0.05a1.31,1.31 0 0 1 -0.33,-0.47a2.8,2.8 0 0 1 -0.24,-1.16l0,-147.82a5.79,5.79 0 0 1 2.59,-4.48l199.99,-115.68a1.94,1.94 0 0 1 0.88,-0.28m0,-1a2.78,2.78 0 0 0 -1.37,0.41l-200.09,115.69a6.85,6.85 0 0 0 -3.09,5.34l0,147.7a3.88,3.88 0 0 0 0.32,1.56a2.52,2.52 0 0 0 0.57,0.81a1.22,1.22 0 0 0 0.17,0.15l0.18,0.12l0.17,0.1a1.14,1.14 0 0 0 0.26,0.09a1.74,1.74 0 0 0 0.39,0l0.05,0a2,2 0 0 0 1,-0.3l200.07,-115.68a6.81,6.81 0 0 0 3.08,-5.34l0,-148.45c0,-0.14 0,-0.27 0,-0.39a1.26,1.26 0 0 0 -0.05,-0.28a0.07,0.07 0 0 0 0,-0.06a1.15,1.15 0 0 0 -0.07,-0.28a1.38,1.38 0 0 0 -0.18,-0.39a0.54,0.54 0 0 0 -0.1,-0.16a0.48,0.48 0 0 0 -0.09,-0.11a0.8,0.8 0 0 0 -0.2,-0.21l0,0a1.82,1.82 0 0 0 -0.27,-0.15a1.63,1.63 0 0 0 -0.7,-0.15l-0.05,-0.02z"/>
        <g id="svg_144" opacity="0.7">
          <path id="svg_145" fill="#455a64" d="m297.52,62.76l0,148.45a6.81,6.81 0 0 1 -3.08,5.34l-200.09,115.74a2,2 0 0 1 -1,0.3a1.74,1.74 0 0 1 -0.39,0a1.14,1.14 0 0 1 -0.26,-0.09l-0.17,-0.1l-0.18,-0.12a1.22,1.22 0 0 1 -0.17,-0.15a2.52,2.52 0 0 1 -0.57,-0.81a3.88,3.88 0 0 1 -0.32,-1.56l0,-147.76a6.85,6.85 0 0 1 3.09,-5.35l200.06,-115.65a2.25,2.25 0 0 1 2.07,-0.26a1.82,1.82 0 0 1 0.27,0.15l0,0a0.8,0.8 0 0 1 0.2,0.21a0.48,0.48 0 0 1 0.09,0.11a0.54,0.54 0 0 1 0.1,0.16a1.38,1.38 0 0 1 0.18,0.39a1.15,1.15 0 0 1 0.07,0.28a0.07,0.07 0 0 1 0,0.06a1.26,1.26 0 0 1 0.05,0.28c0.04,0.11 0.05,0.24 0.05,0.38z"/>
        </g>
      </g>
      <path id="svg_146" fill="#3BD9D9" d="m296.51,60.71a2.25,2.25 0 0 0 -2.07,0.26l-200.09,115.69a6.85,6.85 0 0 0 -3.09,5.34l0,10.08l-3.94,-2.31l0,-10a6.81,6.81 0 0 1 3.08,-5.33l200.1,-115.69a2.13,2.13 0 0 1 2.24,-0.18c0.55,0.33 3.11,1.8 3.77,2.14z"/>
      <path id="svg_147" fill="#3BD9D9" d="m297.52,62.73c0,-1.94 -1.39,-2.73 -3.08,-1.75l-200.1,115.69a6.81,6.81 0 0 0 -3.08,5.33l0,10.08l206.26,-119.23l0,-10.12z"/>
      <g id="svg_148" opacity="0.4">
        <path id="svg_149" fill="#fff" d="m294.44,61l-200.09,115.67a6.2,6.2 0 0 0 -2.17,2.33l-3.92,-2.26a6.22,6.22 0 0 1 2.14,-2.26l200.1,-115.73a2.16,2.16 0 0 1 2.24,-0.19c0.55,0.34 3.11,1.8 3.76,2.15a2.18,2.18 0 0 0 -2.06,0.29z"/>
      </g>
      <path id="svg_150" opacity="0.15" d="m87.32,189.79l0,-10a6.34,6.34 0 0 1 0.94,-3.08l3.93,2.25a6.18,6.18 0 0 0 -0.93,3.07l0,10.08l-3.94,-2.32z"/>
      <path id="svg_151" fill="#455a64" d="m279,74.21a4.61,4.61 0 0 0 -1.74,3.69c0,1.48 0.78,2.23 1.74,1.68a4.61,4.61 0 0 0 1.74,-3.69c-0.05,-1.48 -0.83,-2.23 -1.74,-1.68z"/>
      <path id="svg_152" fill="#455a64" d="m285.22,70.59a4.58,4.58 0 0 0 -1.74,3.68c0,1.48 0.78,2.23 1.74,1.68a4.61,4.61 0 0 0 1.78,-3.69c0,-1.48 -0.82,-2.26 -1.78,-1.67z"/>
      <path id="svg_153" fill="#455a64" d="m291.49,67a4.58,4.58 0 0 0 -1.74,3.69c0,1.48 0.78,2.23 1.74,1.67a4.58,4.58 0 0 0 1.74,-3.69c0,-1.52 -0.78,-2.27 -1.74,-1.67z"/>
      <path id="svg_154" opacity="0.9" fill="#37474f" d="m92.39,332.3l-0.38,-0.22c-0.28,-0.17 -0.61,-0.35 -1,-0.53l0,0l-0.52,-0.29l0,0l-0.81,-0.46c-0.26,-0.16 -0.49,-0.29 -0.68,-0.39s-0.32,-0.18 -0.38,-0.21a1.65,1.65 0 0 1 -0.53,-0.43a2.31,2.31 0 0 1 -0.41,-0.62a3.75,3.75 0 0 1 -0.36,-1.63l0,-137.74l3.94,2.31l0,137.62a4.63,4.63 0 0 0 0.32,1.56a2.52,2.52 0 0 0 0.57,0.81a0.5,0.5 0 0 0 0.17,0.15l0.07,0.07z"/>
      <path id="svg_155" fill="#263238" d="m158.15,243.47s-7.28,-4.71 -8.22,-4.74l-20.7,-0.65l8.23,4.38l0,0.36l20.69,0.65z"/>
      <path id="svg_156" fill="#fafafa" d="m122.67,257.66l0,-13l35.48,-44.11l0,17.2l-20.69,24.67l0,0.36l20.69,0.65l0,17.2l-35.48,-2.97z"/>
      <polygon id="svg_157" fill="#455a64" points="158.15 200.59 149.93 195.85 114.44 239.96 122.67 244.7 158.15 200.59"/>
      <polygon id="svg_158" fill="#37474f" points="114.44 239.96 114.44 252.92 122.67 257.66 122.67 244.7 114.44 239.96"/>
      <path id="svg_159" fill="#fafafa" d="m179.63,252.15l-11,6.36l27.46,-100.65l10.62,-6.13l-27.08,100.42z"/>
      <polygon id="svg_160" fill="#455a64" points="206.7 151.73 198.47 146.99 187.85 153.12 196.07 157.86 206.7 151.73"/>
      <polygon id="svg_161" fill="#37474f" points="187.85 153.12 196.07 157.86 168.62 258.51 160.39 253.77 187.85 153.12"/>
      <polygon id="svg_162" fill="#263238" points="208.94 204.66 217.16 209.4 237.85 184.5 229.63 179.76 208.94 204.66"/>
      <path id="svg_163" fill="#fafafa" d="m237.85,184.5l-20.69,-0.78l0,-17.2l35.48,3.14l0,13l-35.48,44l0,-17.26l20.69,-24.54l0,-0.36z"/>
      <polygon id="svg_164" fill="#455a64" points="208.94 161.78 217.16 166.52 252.65 169.66 244.42 164.92 208.94 161.78"/>
      <polyline id="svg_165" fill="#37474f" points="217.16 166.52 217.16 183.72 208.94 178.98 208.94 161.78"/>
      <polygon id="svg_166" fill="#37474f" points="208.94 204.66 217.16 209.4 217.16 226.6 208.94 221.86 208.94 204.66"/>
      <g id="svg_167" opacity="0.8">
        <path id="svg_168" fill="#455a64" d="m362.13,88.36l0,148.45a6.82,6.82 0 0 1 -3.09,5.35l-85.29,49.2a1.89,1.89 0 0 1 -1,0.3a1.74,1.74 0 0 1 -0.39,-0.05l-0.27,-0.09l-0.16,-0.1l-0.18,-0.12a1.22,1.22 0 0 1 -0.17,-0.15a2.37,2.37 0 0 1 -0.57,-0.81a3.88,3.88 0 0 1 -0.32,-1.56l0,-147.7a6.84,6.84 0 0 1 3.08,-5.35l85.23,-49.15a2.25,2.25 0 0 1 2.08,-0.27a1.4,1.4 0 0 1 0.26,0.16l0,0a1,1 0 0 1 0.2,0.2a0.48,0.48 0 0 1 0.09,0.11a0.54,0.54 0 0 1 0.1,0.16a1.34,1.34 0 0 1 0.19,0.4a1.07,1.07 0 0 1 0.07,0.27a0.07,0.07 0 0 1 0,0.06a1.26,1.26 0 0 1 0.05,0.28c0.08,0.15 0.09,0.28 0.09,0.41z"/>
        <path id="svg_169" fill="#455a64" d="m360.41,87.16a0.63,0.63 0 0 1 0.3,0.07l0,0l0.06,0l0.09,0.11l0,0l0.07,0.12l0,0l0,0l0.1,0.29l0,0l0,0l0,0a0.17,0.17 0 0 1 0,0.07a2.66,2.66 0 0 1 0,0.3l0,148.69a5.82,5.82 0 0 1 -2.59,4.48l-85.18,49.21a1,1 0 0 1 -0.52,0.16l0,0l-0.21,0l-0.07,0l-0.13,-0.08l0,0l0,0l0,0a1.43,1.43 0 0 1 -0.32,-0.47a2.8,2.8 0 0 1 -0.24,-1.16l0,-147.87a5.81,5.81 0 0 1 2.58,-4.48l85.29,-49.15a1.82,1.82 0 0 1 0.87,-0.29m0,-1a2.83,2.83 0 0 0 -1.37,0.42l-85.29,49.15a6.84,6.84 0 0 0 -3.08,5.35l0,147.7a3.88,3.88 0 0 0 0.32,1.56a2.37,2.37 0 0 0 0.57,0.81a1.22,1.22 0 0 0 0.17,0.15l0.18,0.12l0.16,0.1l0.27,0.09a1.74,1.74 0 0 0 0.39,0.05l0,0a1.91,1.91 0 0 0 1,-0.3l85.17,-49.2a6.84,6.84 0 0 0 3.09,-5.35l0,-148.45c0,-0.13 0,-0.26 0,-0.39a1.26,1.26 0 0 0 -0.05,-0.28a0.07,0.07 0 0 0 0,-0.06a1.07,1.07 0 0 0 -0.07,-0.27a1.34,1.34 0 0 0 -0.19,-0.4a0.54,0.54 0 0 0 -0.1,-0.16a0.48,0.48 0 0 0 -0.09,-0.11a1,1 0 0 0 -0.2,-0.2l0,0a1.4,1.4 0 0 0 -0.26,-0.16a1.67,1.67 0 0 0 -0.71,-0.15l0.09,-0.02z"/>
        <g id="svg_170" opacity="0.8">
          <path id="svg_171" fill="#455a64" d="m362.13,88.36l0,148.45a6.82,6.82 0 0 1 -3.09,5.35l-85.29,49.2a1.89,1.89 0 0 1 -1,0.3a1.74,1.74 0 0 1 -0.39,-0.05l-0.27,-0.09l-0.16,-0.1l-0.18,-0.12a1.22,1.22 0 0 1 -0.17,-0.15a2.37,2.37 0 0 1 -0.57,-0.81a3.88,3.88 0 0 1 -0.32,-1.56l0,-147.7a6.84,6.84 0 0 1 3.08,-5.35l85.23,-49.15a2.25,2.25 0 0 1 2.08,-0.27a1.4,1.4 0 0 1 0.26,0.16l0,0a1,1 0 0 1 0.2,0.2a0.48,0.48 0 0 1 0.09,0.11a0.54,0.54 0 0 1 0.1,0.16a1.34,1.34 0 0 1 0.19,0.4a1.07,1.07 0 0 1 0.07,0.27a0.07,0.07 0 0 1 0,0.06a1.26,1.26 0 0 1 0.05,0.28c0.08,0.15 0.09,0.28 0.09,0.41z"/>
        </g>
      </g>
      <path id="svg_172" fill="#3BD9D9" d="m361.12,86.31a2.25,2.25 0 0 0 -2.08,0.27l-85.29,49.15a6.84,6.84 0 0 0 -3.08,5.35l0,10.08l-3.94,-2.31l0,-10a6.81,6.81 0 0 1 3.08,-5.33l85.3,-49.16a2.16,2.16 0 0 1 2.23,-0.18c0.56,0.32 3.12,1.82 3.78,2.13z"/>
      <path id="svg_173" fill="#3BD9D9" d="m362.12,88.34c0,-2 -1.38,-2.74 -3.08,-1.76l-85.29,49.16a6.81,6.81 0 0 0 -3.08,5.34l0,10.08l91.45,-52.7l0,-10.12z"/>
      <g id="svg_174" opacity="0.4">
        <path id="svg_175" fill="#fff" d="m359,86.58l-85.28,49.16a6.3,6.3 0 0 0 -2.18,2.28l-3.91,-2.26a6.11,6.11 0 0 1 2.14,-2.25l85.33,-49.16a2.17,2.17 0 0 1 2.24,-0.18c0.56,0.34 3.11,1.79 3.76,2.14a2.21,2.21 0 0 0 -2.1,0.27z"/>
      </g>
      <path id="svg_176" opacity="0.15" d="m266.73,148.86l0,-10a6.37,6.37 0 0 1 0.94,-3.08l3.92,2.25a6.27,6.27 0 0 0 -0.92,3.07l0,10.08l-3.94,-2.32z"/>
      <path id="svg_177" fill="#455a64" d="m343.55,99.82a4.58,4.58 0 0 0 -1.74,3.68c0,1.48 0.78,2.23 1.74,1.68a4.61,4.61 0 0 0 1.74,-3.69c0,-1.49 -0.78,-2.23 -1.74,-1.67z"/>
      <path id="svg_178" fill="#455a64" d="m349.82,96.19a4.6,4.6 0 0 0 -1.74,3.69c0,1.48 0.78,2.23 1.74,1.67a4.55,4.55 0 0 0 1.74,-3.69c0,-1.48 -0.77,-2.23 -1.74,-1.67z"/>
      <path id="svg_179" fill="#455a64" d="m356.09,92.56a4.61,4.61 0 0 0 -1.74,3.69c0,1.48 0.78,2.23 1.74,1.67a4.56,4.56 0 0 0 1.75,-3.68c0,-1.48 -0.78,-2.24 -1.75,-1.68z"/>
      <path id="svg_180" opacity="0.9" fill="#37474f" d="m271.8,291.37l-0.38,-0.22l-0.95,-0.53l0,0l-0.52,-0.3l0,0l-0.81,-0.46c-0.26,-0.16 -0.5,-0.29 -0.68,-0.39s-0.32,-0.18 -0.38,-0.21a1.65,1.65 0 0 1 -0.53,-0.43a2.31,2.31 0 0 1 -0.41,-0.62a3.75,3.75 0 0 1 -0.36,-1.63l0,-137.73l3.94,2.31l0,137.62a4.63,4.63 0 0 0 0.32,1.56a2.37,2.37 0 0 0 0.57,0.81a0.5,0.5 0 0 0 0.17,0.15a0.23,0.23 0 0 0 0.02,0.07z"/>
      <path id="svg_181" fill="#3BD9D9" d="m278.24,159.53a1.3,1.3 0 0 1 0.16,-0.57l2.22,-4.59a0.29,0.29 0 0 1 0.1,-0.13l0,-0.05a0.15,0.15 0 0 1 0.18,0a0.28,0.28 0 0 1 0.07,0.22l0,1.59a2.09,2.09 0 0 1 0,0.48a2.89,2.89 0 0 1 -0.16,0.42l-1.17,2.42l1.17,1.08a0.69,0.69 0 0 1 0.16,0.23a1.51,1.51 0 0 1 0,0.43l0,1.54a0.7,0.7 0 0 1 -0.07,0.31a0.48,0.48 0 0 1 -0.18,0.21l0,0a0.12,0.12 0 0 1 -0.1,0l-2.22,-2a0.47,0.47 0 0 1 -0.16,-0.39l0,-1.2z"/>
      <path id="svg_182" fill="#3BD9D9" d="m286.35,148a2.07,2.07 0 0 1 0.17,-0.45a0.75,0.75 0 0 1 0.33,-0.35l0.83,-0.48a0.12,0.12 0 0 1 0.17,0a0.28,0.28 0 0 1 0.08,0.22a0.55,0.55 0 0 1 0,0.17l-3.8,16.2a1.82,1.82 0 0 1 -0.16,0.44a0.79,0.79 0 0 1 -0.33,0.37l-0.8,0.46a0.13,0.13 0 0 1 -0.17,0a0.32,0.32 0 0 1 -0.08,-0.23a1.28,1.28 0 0 1 0,-0.17l3.76,-16.18z"/>
      <path id="svg_183" fill="#3BD9D9" d="m292.23,152.6a1.25,1.25 0 0 1 -0.15,0.57l-2.22,4.59a0.64,0.64 0 0 1 -0.1,0.14l-0.06,0a0.14,0.14 0 0 1 -0.17,0a0.32,0.32 0 0 1 -0.07,-0.23l0,-1.54a2.09,2.09 0 0 1 0,-0.48a2.06,2.06 0 0 1 0.16,-0.42l1.17,-2.42l-1.17,-1.07a0.67,0.67 0 0 1 -0.16,-0.24a1.51,1.51 0 0 1 0,-0.43l0,-1.54a0.73,0.73 0 0 1 0.07,-0.31a0.54,0.54 0 0 1 0.17,-0.21l0.06,0s0.06,0 0.1,0l2.22,2a0.48,0.48 0 0 1 0.15,0.4l0,1.19z"/>
      <path id="svg_184" fill="#3BD9D9" d="m298.39,151.53a0.18,0.18 0 0 1 0.22,0a0.38,0.38 0 0 1 0.09,0.28l0,1.69a0.85,0.85 0 0 1 -0.09,0.38a0.56,0.56 0 0 1 -0.22,0.27l-1,0.6a0.15,0.15 0 0 1 -0.21,0a0.34,0.34 0 0 1 -0.09,-0.27l0,-1.7a0.88,0.88 0 0 1 0.09,-0.38a0.57,0.57 0 0 1 0.21,-0.26l1,-0.61z"/>
      <path id="svg_185" fill="#3BD9D9" d="m301.89,149.52a0.17,0.17 0 0 1 0.22,0a0.38,0.38 0 0 1 0.09,0.28l0,1.69a0.85,0.85 0 0 1 -0.09,0.38a0.56,0.56 0 0 1 -0.22,0.27l-1,0.6a0.18,0.18 0 0 1 -0.22,0a0.38,0.38 0 0 1 -0.09,-0.28l0,-1.7a0.92,0.92 0 0 1 0.09,-0.38a0.53,0.53 0 0 1 0.22,-0.26l1,-0.6z"/>
      <path id="svg_186" fill="#3BD9D9" d="m305.39,147.5a0.15,0.15 0 0 1 0.21,0a0.38,0.38 0 0 1 0.09,0.28l0,1.69a0.92,0.92 0 0 1 -0.09,0.39a0.63,0.63 0 0 1 -0.21,0.26l-1.05,0.6a0.16,0.16 0 0 1 -0.21,0a0.38,0.38 0 0 1 -0.09,-0.28l0,-1.7a0.92,0.92 0 0 1 0.09,-0.38a0.63,0.63 0 0 1 0.21,-0.26l1.05,-0.6z"/>
      <path id="svg_187" fill="#3BD9D9" d="m279.18,171.9l51.24,-29.58c0.61,-0.35 1.1,-0.1 1.1,0.55a2.34,2.34 0 0 1 -1.1,1.82l-51.24,29.59c-0.61,0.35 -1.1,0.1 -1.1,-0.56a2.35,2.35 0 0 1 1.1,-1.82z"/>
      <path id="svg_188" fill="#e0e0e0" d="m295.62,190.89l51.24,-29.59c0.61,-0.35 1.1,-0.1 1.1,0.56a2.35,2.35 0 0 1 -1.1,1.82l-51.24,29.58c-0.61,0.35 -1.1,0.1 -1.1,-0.55a2.34,2.34 0 0 1 1.1,-1.82z"/>
      <path id="svg_189" fill="#e0e0e0" d="m295.62,200.38l24.53,-14.15c0.6,-0.35 1.09,-0.1 1.09,0.56a2.33,2.33 0 0 1 -1.09,1.81l-24.53,14.16c-0.61,0.34 -1.1,0.1 -1.1,-0.56a2.35,2.35 0 0 1 1.1,-1.82z"/>
      <path id="svg_190" fill="#e0e0e0" d="m295.62,209.87l24.53,-14.15c0.6,-0.34 1.09,-0.1 1.09,0.56a2.37,2.37 0 0 1 -1.09,1.82l-24.53,14.15c-0.61,0.35 -1.1,0.1 -1.1,-0.56a2.35,2.35 0 0 1 1.1,-1.82z"/>
      <path id="svg_191" fill="#3BD9D9" d="m334.67,139.87l20.41,-11.87c0.61,-0.35 1.1,-0.1 1.1,0.55a2.34,2.34 0 0 1 -1.1,1.82l-20.41,11.83c-0.61,0.35 -1.1,0.1 -1.1,-0.55a2.34,2.34 0 0 1 1.1,-1.78z"/>
      <path id="svg_192" fill="#3BD9D9" d="m279.18,276.31l51.24,-29.58c0.61,-0.35 1.1,-0.1 1.1,0.55a2.34,2.34 0 0 1 -1.1,1.82l-51.24,29.59c-0.61,0.34 -1.1,0.1 -1.1,-0.56a2.35,2.35 0 0 1 1.1,-1.82z"/>
      <path id="svg_193" fill="#3BD9D9" d="m334.67,244.27l20.41,-11.83c0.61,-0.35 1.1,-0.1 1.1,0.56a2.35,2.35 0 0 1 -1.1,1.82l-20.41,11.83c-0.61,0.35 -1.1,0.1 -1.1,-0.56a2.35,2.35 0 0 1 1.1,-1.82z"/>
      <path id="svg_194" fill="#3BD9D9" d="m334.67,215.85l20.41,-11.85c0.61,-0.35 1.1,-0.1 1.1,0.55a2.34,2.34 0 0 1 -1.1,1.82l-20.41,11.83c-0.61,0.35 -1.1,0.1 -1.1,-0.55a2.34,2.34 0 0 1 1.1,-1.8z"/>
      <path id="svg_195" fill="#3BD9D9" d="m334.67,225.34l20.41,-11.83c0.61,-0.35 1.1,-0.1 1.1,0.55a2.34,2.34 0 0 1 -1.1,1.82l-20.41,11.83c-0.61,0.35 -1.1,0.1 -1.1,-0.55a2.34,2.34 0 0 1 1.1,-1.82z"/>
      <path id="svg_196" fill="#f5f5f5" d="m279.18,266.83l51.24,-29.59c0.61,-0.34 1.1,-0.1 1.1,0.56a2.35,2.35 0 0 1 -1.1,1.82l-51.24,29.58c-0.61,0.35 -1.1,0.1 -1.1,-0.55a2.34,2.34 0 0 1 1.1,-1.82z"/>
      <path id="svg_197" fill="#3BD9D9" d="m317.26,225.87l11.47,-6.62c0.6,-0.35 1.09,-0.1 1.09,0.55a2.35,2.35 0 0 1 -1.09,1.82l-11.47,6.62c-0.61,0.35 -1.1,0.11 -1.1,-0.55a2.34,2.34 0 0 1 1.1,-1.82z"/>
      <path id="svg_198" fill="#3BD9D9" d="m279.18,181.42l29.89,-17.27c0.6,-0.35 1.09,-0.1 1.09,0.55a2.35,2.35 0 0 1 -1.09,1.82l-29.89,17.27c-0.61,0.35 -1.1,0.1 -1.1,-0.55a2.34,2.34 0 0 1 1.1,-1.82z"/>
      <path id="svg_199" opacity="0.6" fill="#fff" d="m279.18,181.42l29.89,-17.27c0.6,-0.35 1.09,-0.1 1.09,0.55a2.35,2.35 0 0 1 -1.09,1.82l-29.89,17.27c-0.61,0.35 -1.1,0.1 -1.1,-0.55a2.34,2.34 0 0 1 1.1,-1.82z"/>
      <path id="svg_200" fill="#3BD9D9" d="m279.18,190.89l10.14,-5.89c0.6,-0.35 1.09,-0.1 1.09,0.56a2.37,2.37 0 0 1 -1.09,1.82l-10.14,5.86c-0.61,0.35 -1.1,0.1 -1.1,-0.56a2.35,2.35 0 0 1 1.1,-1.79z"/>
      <path id="svg_201" opacity="0.6" fill="#fff" d="m279.18,190.89l10.14,-5.89c0.6,-0.35 1.09,-0.1 1.09,0.56a2.37,2.37 0 0 1 -1.09,1.82l-10.14,5.86c-0.61,0.35 -1.1,0.1 -1.1,-0.56a2.35,2.35 0 0 1 1.1,-1.79z"/>
      <path id="svg_202" fill="#3BD9D9" d="m279.18,200.39l10.14,-5.87c0.6,-0.35 1.09,-0.1 1.09,0.56a2.37,2.37 0 0 1 -1.09,1.82l-10.14,5.86c-0.61,0.35 -1.1,0.1 -1.1,-0.56a2.32,2.32 0 0 1 1.1,-1.81z"/>
      <path id="svg_203" opacity="0.6" fill="#fff" d="m279.18,200.39l10.14,-5.87c0.6,-0.35 1.09,-0.1 1.09,0.56a2.37,2.37 0 0 1 -1.09,1.82l-10.14,5.86c-0.61,0.35 -1.1,0.1 -1.1,-0.56a2.32,2.32 0 0 1 1.1,-1.81z"/>
      <path id="svg_204" fill="#3BD9D9" d="m279.18,209.88l10.14,-5.88c0.6,-0.35 1.09,-0.11 1.09,0.55a2.35,2.35 0 0 1 -1.09,1.82l-10.14,5.86c-0.61,0.35 -1.1,0.1 -1.1,-0.55a2.34,2.34 0 0 1 1.1,-1.8z"/>
      <path id="svg_205" opacity="0.6" fill="#fff" d="m279.18,209.88l10.14,-5.88c0.6,-0.35 1.09,-0.11 1.09,0.55a2.35,2.35 0 0 1 -1.09,1.82l-10.14,5.86c-0.61,0.35 -1.1,0.1 -1.1,-0.55a2.34,2.34 0 0 1 1.1,-1.8z"/>
      <path id="svg_206" fill="#3BD9D9" d="m279.18,219.37l10.14,-5.86c0.6,-0.35 1.09,-0.1 1.09,0.55a2.35,2.35 0 0 1 -1.09,1.82l-10.14,5.86c-0.61,0.35 -1.1,0.1 -1.1,-0.55a2.34,2.34 0 0 1 1.1,-1.82z"/>
      <path id="svg_207" opacity="0.6" fill="#fff" d="m279.18,219.37l10.14,-5.86c0.6,-0.35 1.09,-0.1 1.09,0.55a2.35,2.35 0 0 1 -1.09,1.82l-10.14,5.86c-0.61,0.35 -1.1,0.1 -1.1,-0.55a2.34,2.34 0 0 1 1.1,-1.82z"/>
      <path id="svg_208" fill="#3BD9D9" d="m313.31,161.7l13,-7.48c0.6,-0.35 1.1,-0.1 1.1,0.55a2.36,2.36 0 0 1 -1.1,1.82l-13,7.48c-0.6,0.35 -1.09,0.1 -1.09,-0.55a2.35,2.35 0 0 1 1.09,-1.82z"/>
      <path id="svg_209" opacity="0.6" fill="#fff" d="m313.31,161.7l13,-7.48c0.6,-0.35 1.1,-0.1 1.1,0.55a2.36,2.36 0 0 1 -1.1,1.82l-13,7.48c-0.6,0.35 -1.09,0.1 -1.09,-0.55a2.35,2.35 0 0 1 1.09,-1.82z"/>
      <path id="svg_210" fill="#f5f5f5" d="m308,212.23l29.84,-17.23c0.6,-0.35 1.09,-0.1 1.09,0.56a2.37,2.37 0 0 1 -1.09,1.82l-29.84,17.23c-0.6,0.35 -1.1,0.1 -1.1,-0.56a2.35,2.35 0 0 1 1.1,-1.82z"/>
      <path id="svg_211" fill="#f5f5f5" d="m325.19,211.81l29.89,-17.27c0.61,-0.35 1.1,-0.1 1.1,0.55a2.34,2.34 0 0 1 -1.1,1.82l-29.89,17.27c-0.6,0.35 -1.09,0.1 -1.09,-0.55a2.35,2.35 0 0 1 1.09,-1.82z"/>
      <path id="svg_212" fill="#f5f5f5" d="m342.09,192.51l13,-7.48c0.61,-0.35 1.1,-0.1 1.1,0.56a2.35,2.35 0 0 1 -1.1,1.82l-13,7.48c-0.61,0.34 -1.1,0.1 -1.1,-0.56a2.35,2.35 0 0 1 1.1,-1.82z"/>
      <path id="svg_213" fill="#3BD9D9" d="m295.62,181.4l29.89,-17.27c0.6,-0.35 1.09,-0.1 1.09,0.56a2.37,2.37 0 0 1 -1.09,1.82l-29.89,17.26c-0.61,0.35 -1.1,0.11 -1.1,-0.55a2.35,2.35 0 0 1 1.1,-1.82z"/>
      <path id="svg_214" opacity="0.6" fill="#fff" d="m295.62,181.4l29.89,-17.27c0.6,-0.35 1.09,-0.1 1.09,0.56a2.37,2.37 0 0 1 -1.09,1.82l-29.89,17.26c-0.61,0.35 -1.1,0.11 -1.1,-0.55a2.35,2.35 0 0 1 1.1,-1.82z"/>
      <path id="svg_215" fill="#3BD9D9" d="m329.75,161.68l13,-7.48c0.61,-0.35 1.1,-0.1 1.1,0.55a2.34,2.34 0 0 1 -1.1,1.82l-13,7.48c-0.6,0.35 -1.09,0.1 -1.09,-0.55a2.35,2.35 0 0 1 1.09,-1.82z"/>
      <path id="svg_216" opacity="0.6" fill="#fff" d="m329.75,161.68l13,-7.48c0.61,-0.35 1.1,-0.1 1.1,0.55a2.34,2.34 0 0 1 -1.1,1.82l-13,7.48c-0.6,0.35 -1.09,0.1 -1.09,-0.55a2.35,2.35 0 0 1 1.09,-1.82z"/>
    </g>
  </g>
</svg>