<svg id="visual" viewBox="0 0 2560 170" width="2560" height="170"
  xmlns="http://www.w3.org/2000/svg"
  xmlns:xlink="http://www.w3.org/1999/xlink" version="1.1">
  <path d="M0 123L38.8 119.8C77.7 116.7 155.3 110.3 232.8 102.2C310.3 94 387.7 84 465.2 82.2C542.7 80.3 620.3 86.7 698 94.7C775.7 102.7 853.3 112.3 931 115.3C1008.7 118.3 1086.3 114.7 1163.8 109C1241.3 103.3 1318.7 95.7 1396.2 91.2C1473.7 86.7 1551.3 85.3 1629 90.2C1706.7 95 1784.3 106 1862 113.8C1939.7 121.7 2017.3 126.3 2094.8 129.7C2172.3 133 2249.7 135 2327.2 132.2C2404.7 129.3 2482.3 121.7 2521.2 117.8L2560 114L2560 0L2521.2 0C2482.3 0 2404.7 0 2327.2 0C2249.7 0 2172.3 0 2094.8 0C2017.3 0 1939.7 0 1862 0C1784.3 0 1706.7 0 1629 0C1551.3 0 1473.7 0 1396.2 0C1318.7 0 1241.3 0 1163.8 0C1086.3 0 1008.7 0 931 0C853.3 0 775.7 0 698 0C620.3 0 542.7 0 465.2 0C387.7 0 310.3 0 232.8 0C155.3 0 77.7 0 38.8 0L0 0Z" fill="#3bd9d9"></path>
  <path d="M0 74L38.8 74.3C77.7 74.7 155.3 75.3 232.8 72.2C310.3 69 387.7 62 465.2 63.2C542.7 64.3 620.3 73.7 698 79.3C775.7 85 853.3 87 931 81.7C1008.7 76.3 1086.3 63.7 1163.8 58.2C1241.3 52.7 1318.7 54.3 1396.2 56.2C1473.7 58 1551.3 60 1629 58.2C1706.7 56.3 1784.3 50.7 1862 50C1939.7 49.3 2017.3 53.7 2094.8 55.7C2172.3 57.7 2249.7 57.3 2327.2 60.7C2404.7 64 2482.3 71 2521.2 74.5L2560 78L2560 0L2521.2 0C2482.3 0 2404.7 0 2327.2 0C2249.7 0 2172.3 0 2094.8 0C2017.3 0 1939.7 0 1862 0C1784.3 0 1706.7 0 1629 0C1551.3 0 1473.7 0 1396.2 0C1318.7 0 1241.3 0 1163.8 0C1086.3 0 1008.7 0 931 0C853.3 0 775.7 0 698 0C620.3 0 542.7 0 465.2 0C387.7 0 310.3 0 232.8 0C155.3 0 77.7 0 38.8 0L0 0Z" fill="#006b8b"></path>
  <path d="M0 30L38.8 31.3C77.7 32.7 155.3 35.3 232.8 40.3C310.3 45.3 387.7 52.7 465.2 53.2C542.7 53.7 620.3 47.3 698 44.8C775.7 42.3 853.3 43.7 931 42.2C1008.7 40.7 1086.3 36.3 1163.8 34.8C1241.3 33.3 1318.7 34.7 1396.2 40C1473.7 45.3 1551.3 54.7 1629 55C1706.7 55.3 1784.3 46.7 1862 39C1939.7 31.3 2017.3 24.7 2094.8 25.3C2172.3 26 2249.7 34 2327.2 35.8C2404.7 37.7 2482.3 33.3 2521.2 31.2L2560 29L2560 0L2521.2 0C2482.3 0 2404.7 0 2327.2 0C2249.7 0 2172.3 0 2094.8 0C2017.3 0 1939.7 0 1862 0C1784.3 0 1706.7 0 1629 0C1551.3 0 1473.7 0 1396.2 0C1318.7 0 1241.3 0 1163.8 0C1086.3 0 1008.7 0 931 0C853.3 0 775.7 0 698 0C620.3 0 542.7 0 465.2 0C387.7 0 310.3 0 232.8 0C155.3 0 77.7 0 38.8 0L0 0Z" fill="#020e26"></path>
</svg>